<svg id="SvgjsSvg1086" width="999.25" height="487.25" xmlns="http://www.w3.org/2000/svg" version="1.1" xmlns:xlink="http://www.w3.org/1999/xlink" xmlns:svgjs="http://svgjs.com/svgjs"><defs id="SvgjsDefs1087"><marker id="SvgjsMarker1102" markerWidth="14" markerHeight="10" refX="10" refY="5" viewBox="0 0 14 10" orient="auto" markerUnits="userSpaceOnUse" stroke-dasharray="0,0"><path id="SvgjsPath1103" d="M0,0 L14,5 L0,10 L0,0" fill="#323232" stroke="#323232" stroke-width="1"></path></marker><marker id="SvgjsMarker1112" markerWidth="14" markerHeight="10" refX="10" refY="5" viewBox="0 0 14 10" orient="auto" markerUnits="userSpaceOnUse" stroke-dasharray="0,0"><path id="SvgjsPath1113" d="M0,0 L14,5 L0,10 L0,0" fill="#323232" stroke="#323232" stroke-width="1"></path></marker><marker id="SvgjsMarker1122" markerWidth="14" markerHeight="10" refX="10" refY="5" viewBox="0 0 14 10" orient="auto" markerUnits="userSpaceOnUse" stroke-dasharray="0,0"><path id="SvgjsPath1123" d="M0,0 L14,5 L0,10 L0,0" fill="#323232" stroke="#323232" stroke-width="1"></path></marker><marker id="SvgjsMarker1132" markerWidth="14" markerHeight="10" refX="10" refY="5" viewBox="0 0 14 10" orient="auto" markerUnits="userSpaceOnUse" stroke-dasharray="0,0"><path id="SvgjsPath1133" d="M0,0 L14,5 L0,10 L0,0" fill="#323232" stroke="#323232" stroke-width="1"></path></marker><marker id="SvgjsMarker1150" markerWidth="14" markerHeight="10" refX="10" refY="5" viewBox="0 0 14 10" orient="auto" markerUnits="userSpaceOnUse" stroke-dasharray="0,0"><path id="SvgjsPath1151" d="M0,0 L14,5 L0,10 L0,0" fill="#323232" stroke="#323232" stroke-width="1"></path></marker><marker id="SvgjsMarker1160" markerWidth="14" markerHeight="10" refX="10" refY="5" viewBox="0 0 14 10" orient="auto" markerUnits="userSpaceOnUse" stroke-dasharray="0,0"><path id="SvgjsPath1161" d="M0,0 L14,5 L0,10 L0,0" fill="#323232" stroke="#323232" stroke-width="1"></path></marker><marker id="SvgjsMarker1170" markerWidth="14" markerHeight="10" refX="10" refY="5" viewBox="0 0 14 10" orient="auto" markerUnits="userSpaceOnUse" stroke-dasharray="0,0"><path id="SvgjsPath1171" d="M0,0 L14,5 L0,10 L0,0" fill="#323232" stroke="#323232" stroke-width="1"></path></marker><marker id="SvgjsMarker1192" markerWidth="14" markerHeight="10" refX="10" refY="5" viewBox="0 0 14 10" orient="auto" markerUnits="userSpaceOnUse" stroke-dasharray="0,0"><path id="SvgjsPath1193" d="M0,0 L14,5 L0,10 L0,0" fill="#323232" stroke="#323232" stroke-width="1"></path></marker></defs><g id="SvgjsG1088" transform="translate(25,30)"><path id="SvgjsPath1089" d="M 16.666666666666668 0L 83.33333333333333 0C 105.55555555555556 0 105.55555555555556 50 83.33333333333333 50L 16.666666666666668 50C -5.555555555555556 50 -5.555555555555556 0 16.666666666666668 0Z" stroke="rgba(50,50,50,1)" stroke-width="2" fill-opacity="1" fill="#42b983"></path><g id="SvgjsG1090"><text id="SvgjsText1091" font-family="Arial" text-anchor="middle" font-size="13px" width="80px" fill="#ffffff" font-weight="400" align="middle" lineHeight="125%" anchor="middle" family="Arial" size="13px" weight="400" font-style="" opacity="1" y="13.875" transform="rotate(0)"><tspan id="SvgjsTspan1092" dy="16" x="50"><tspan id="SvgjsTspan1093" style="text-decoration:;">Vue Template</tspan></tspan></text></g></g><g id="SvgjsG1094" transform="translate(169,25)"><path id="SvgjsPath1095" d="M 0 0L 107 0L 107 60L 0 60Z" stroke="rgba(50,50,50,1)" stroke-width="2" fill-opacity="1" fill="#66ff66"></path><g id="SvgjsG1096"><text id="SvgjsText1097" font-family="Arial" text-anchor="middle" font-size="13px" width="87px" fill="#323232" font-weight="400" align="middle" lineHeight="125%" anchor="middle" family="Arial" size="13px" weight="400" font-style="" opacity="1" y="18.875" transform="rotate(0)"><tspan id="SvgjsTspan1098" dy="16" x="53.5"><tspan id="SvgjsTspan1099" style="text-decoration:;">词法分析</tspan></tspan></text></g></g><g id="SvgjsG1100"><path id="SvgjsPath1101" d="M126 55L147 55L147 55L165.39999999999998 55" stroke="#323232" stroke-width="2" fill="none" marker-end="url(#SvgjsMarker1102)"></path></g><g id="SvgjsG1104" transform="translate(320,25)"><path id="SvgjsPath1105" d="M 0 0L 107 0L 107 60L 0 60Z" stroke="rgba(50,50,50,1)" stroke-width="2" fill-opacity="1" fill="#66ff66"></path><g id="SvgjsG1106"><text id="SvgjsText1107" font-family="Arial" text-anchor="middle" font-size="13px" width="87px" fill="#323232" font-weight="400" align="middle" lineHeight="125%" anchor="middle" family="Arial" size="13px" weight="400" font-style="" opacity="1" y="18.875" transform="rotate(0)"><tspan id="SvgjsTspan1108" dy="16" x="53.5"><tspan id="SvgjsTspan1109" style="text-decoration:;">语法分析</tspan></tspan></text></g></g><g id="SvgjsG1110"><path id="SvgjsPath1111" d="M277 55L298 55L298 55L316.4 55" stroke="#323232" stroke-width="2" fill="none" marker-end="url(#SvgjsMarker1112)"></path></g><g id="SvgjsG1114" transform="translate(323.5,178)"><path id="SvgjsPath1115" d="M 0 4Q 0 0 4 0L 99.5 0Q 103.5 0 103.5 4L 103.5 67Q 103.5 71 99.5 71L 4 71Q 0 71 0 67Z" stroke="rgba(50,50,50,1)" stroke-width="2" fill-opacity="1" fill="#00ff00"></path><g id="SvgjsG1116"><text id="SvgjsText1117" font-family="微软雅黑" text-anchor="middle" font-size="13px" width="84px" fill="#323232" font-weight="400" align="middle" lineHeight="125%" anchor="middle" family="微软雅黑" size="13px" weight="400" font-style="" opacity="1" y="24.375" transform="rotate(0)"><tspan id="SvgjsTspan1118" dy="16" x="52"><tspan id="SvgjsTspan1119" style="text-decoration:;">模板 AST</tspan></tspan></text></g></g><g id="SvgjsG1120"><path id="SvgjsPath1121" d="M373.5 86L373.5 131.5L373.5 131.5L373.5 174.4" stroke="#323232" stroke-width="2" fill="none" marker-end="url(#SvgjsMarker1122)"></path></g><g id="SvgjsG1124" transform="translate(479.25,168)"><path id="SvgjsPath1125" d="M 0 4Q 0 0 4 0L 101 0Q 105 0 105 4L 105 87Q 105 91 101 91L 4 91Q 0 91 0 87Z" stroke="rgba(50,50,50,1)" stroke-width="2" fill-opacity="1" fill="#ffff00"></path><g id="SvgjsG1126"><text id="SvgjsText1127" font-family="微软雅黑" text-anchor="middle" font-size="13px" width="85px" fill="#323232" font-weight="400" align="middle" lineHeight="125%" anchor="middle" family="微软雅黑" size="13px" weight="400" font-style="" opacity="1" y="34.375" transform="rotate(0)"><tspan id="SvgjsTspan1128" dy="16" x="52.5"><tspan id="SvgjsTspan1129" style="text-decoration:;">Transformer</tspan></tspan></text></g></g><g id="SvgjsG1130"><path id="SvgjsPath1131" d="M428 213.5L453.125 213.5L453.125 213.5L475.65 213.5" stroke="#323232" stroke-width="2" fill="none" marker-end="url(#SvgjsMarker1132)"></path></g><g id="SvgjsG1134" transform="translate(480,329)"><path id="SvgjsPath1135" d="M 0 4Q 0 0 4 0L 99.5 0Q 103.5 0 103.5 4L 103.5 67Q 103.5 71 99.5 71L 4 71Q 0 71 0 67Z" stroke="rgba(50,50,50,1)" stroke-width="2" fill-opacity="1" fill="#00ff00"></path><g id="SvgjsG1136"><text id="SvgjsText1137" font-family="微软雅黑" text-anchor="middle" font-size="13px" width="84px" fill="#323232" font-weight="400" align="middle" lineHeight="125%" anchor="middle" family="微软雅黑" size="13px" weight="400" font-style="" opacity="1" y="16.375" transform="rotate(0)"><tspan id="SvgjsTspan1138" dy="16" x="52"><tspan id="SvgjsTspan1139" style="text-decoration:;">JavaScript </tspan></tspan><tspan id="SvgjsTspan1140" dy="16" x="52"><tspan id="SvgjsTspan1141" style="text-decoration:;">AST</tspan></tspan></text></g></g><g id="SvgjsG1142" transform="translate(634.75,333.5)"><path id="SvgjsPath1143" d="M 0 4Q 0 0 4 0L 107.5 0Q 111.5 0 111.5 4L 111.5 58Q 111.5 62 107.5 62L 4 62Q 0 62 0 58Z" stroke="rgba(50,50,50,1)" stroke-width="2" fill-opacity="1" fill="#00ff00"></path><g id="SvgjsG1144"><text id="SvgjsText1145" font-family="微软雅黑" text-anchor="middle" font-size="13px" width="92px" fill="#323232" font-weight="400" align="middle" lineHeight="125%" anchor="middle" family="微软雅黑" size="13px" weight="400" font-style="" opacity="1" y="19.875" transform="rotate(0)"><tspan id="SvgjsTspan1146" dy="16" x="56"><tspan id="SvgjsTspan1147" style="text-decoration:;">Code generate</tspan></tspan></text></g></g><g id="SvgjsG1148"><path id="SvgjsPath1149" d="M584.5 364.5L609.125 364.5L609.125 364.5L631.15 364.5" stroke="#323232" stroke-width="2" fill="none" marker-end="url(#SvgjsMarker1150)"></path></g><g id="SvgjsG1152" transform="translate(785.75,333.5)"><path id="SvgjsPath1153" d="M 0 4Q 0 0 4 0L 107.5 0Q 111.5 0 111.5 4L 111.5 58Q 111.5 62 107.5 62L 4 62Q 0 62 0 58Z" stroke="rgba(50,50,50,1)" stroke-width="2" fill-opacity="1" fill="#81c784"></path><g id="SvgjsG1154"><text id="SvgjsText1155" font-family="微软雅黑" text-anchor="middle" font-size="13px" width="92px" fill="#323232" font-weight="400" align="middle" lineHeight="125%" anchor="middle" family="微软雅黑" size="13px" weight="400" font-style="" opacity="1" y="19.875" transform="rotate(0)"><tspan id="SvgjsTspan1156" dy="16" x="56"><tspan id="SvgjsTspan1157" style="text-decoration:;">渲染函数</tspan></tspan></text></g></g><g id="SvgjsG1158"><path id="SvgjsPath1159" d="M747.25 364.5L766 364.5L766 364.5L782.15 364.5" stroke="#323232" stroke-width="2" fill="none" marker-end="url(#SvgjsMarker1160)"></path></g><g id="SvgjsG1162" transform="translate(344,109.75)"><path id="SvgjsPath1163" d="M 0 0L 265 0L 265 33.5L 0 33.5Z" stroke="none" fill="none"></path><g id="SvgjsG1164"><text id="SvgjsText1165" font-family="微软雅黑" text-anchor="end" font-size="14px" width="265px" fill="#e57373" font-weight="700" align="middle" lineHeight="125%" anchor="end" family="微软雅黑" size="14px" weight="700" font-style="" opacity="1" y="5" transform="rotate(0)"><tspan id="SvgjsTspan1166" dy="17" x="265"><tspan id="SvgjsTspan1167" style="text-decoration:;">1. parse: 模板字符串解析为模板 AST</tspan></tspan></text></g></g><g id="SvgjsG1168"><path id="SvgjsPath1169" d="M531.75 260L531.75 294L531.75 294L531.75 325.4" stroke="#323232" stroke-width="2" fill="none" marker-end="url(#SvgjsMarker1170)"></path></g><g id="SvgjsG1172" transform="translate(738.25,90.5)"><path id="SvgjsPath1173" d="M 0 0L 236 0L 236 36.5L 0 36.5Z" stroke="none" fill="none"></path><g id="SvgjsG1174"><text id="SvgjsText1175" font-family="微软雅黑" text-anchor="end" font-size="13px" width="236px" fill="#e57373" font-weight="700" align="middle" lineHeight="125%" anchor="end" family="微软雅黑" size="13px" weight="700" font-style="" opacity="1" y="7.125" transform="rotate(0)"><tspan id="SvgjsTspan1176" dy="16" x="236"><tspan id="SvgjsTspan1177" style="text-decoration:;">2.</tspan></tspan></text></g></g><g id="SvgjsG1178" transform="translate(510,279.625)"><path id="SvgjsPath1179" d="M 0 0L 351 0L 351 28.75L 0 28.75Z" stroke="none" fill="none"></path><g id="SvgjsG1180"><text id="SvgjsText1181" font-family="微软雅黑" text-anchor="end" font-size="14px" width="351px" fill="#e57373" font-weight="700" align="middle" lineHeight="125%" anchor="end" family="微软雅黑" size="14px" weight="700" font-style="" opacity="1" y="2.625" transform="rotate(0)"><tspan id="SvgjsTspan1182" dy="17" x="351"><tspan id="SvgjsTspan1183" style="text-decoration:;">2. transformer: 模板AST 转化为 JavaScript AST</tspan></tspan></text></g></g><g id="SvgjsG1184" transform="translate(522,433.25)"><path id="SvgjsPath1185" d="M 0 0L 351 0L 351 28.75L 0 28.75Z" stroke="none" fill="none"></path><g id="SvgjsG1186"><text id="SvgjsText1187" font-family="微软雅黑" text-anchor="end" font-size="14px" width="351px" fill="#e57373" font-weight="700" align="middle" lineHeight="125%" anchor="end" family="微软雅黑" size="14px" weight="700" font-style="" opacity="1" y="2.625" transform="rotate(0)"><tspan id="SvgjsTspan1188" dy="17" x="351"><tspan id="SvgjsTspan1189" style="text-decoration:;">3. generator: JavaScript AST 生成渲染函数</tspan></tspan></text></g></g><g id="SvgjsG1190"><path id="SvgjsPath1191" d="M699 396L699 414.125L699 414.125L699 429.65" stroke-dasharray="3,3" stroke="#323232" stroke-width="2" fill="none" marker-end="url(#SvgjsMarker1192)"></path></g></svg>