<svg id="SvgjsSvg1070" width="985.5" height="117" xmlns="http://www.w3.org/2000/svg" version="1.1" xmlns:xlink="http://www.w3.org/1999/xlink" xmlns:svgjs="http://svgjs.com/svgjs"><defs id="SvgjsDefs1071"><marker id="SvgjsMarker1092" markerWidth="14" markerHeight="10" refX="10" refY="5" viewBox="0 0 14 10" orient="auto" markerUnits="userSpaceOnUse" stroke-dasharray="0,0"><path id="SvgjsPath1093" d="M0,0 L14,5 L0,10 L0,0" fill="#323232" stroke="#323232" stroke-width="1"></path></marker><marker id="SvgjsMarker1096" markerWidth="14" markerHeight="10" refX="10" refY="5" viewBox="0 0 14 10" orient="auto" markerUnits="userSpaceOnUse" stroke-dasharray="0,0"><path id="SvgjsPath1097" d="M0,0 L14,5 L0,10 L0,0" fill="#323232" stroke="#323232" stroke-width="1"></path></marker><marker id="SvgjsMarker1118" markerWidth="14" markerHeight="10" refX="10" refY="5" viewBox="0 0 14 10" orient="auto" markerUnits="userSpaceOnUse" stroke-dasharray="0,0"><path id="SvgjsPath1119" d="M0,0 L14,5 L0,10 L0,0" fill="#323232" stroke="#323232" stroke-width="1"></path></marker></defs><g id="SvgjsG1072" transform="translate(25,32)"><path id="SvgjsPath1073" d="M 0 0L 107 0L 107 60L 0 60Z" stroke="rgba(50,50,50,1)" stroke-width="2" fill-opacity="1" fill="#66ff66"></path><g id="SvgjsG1074"><text id="SvgjsText1075" font-family="Arial" text-anchor="middle" font-size="16px" width="87px" fill="#323232" font-weight="400" align="middle" lineHeight="125%" anchor="middle" family="Arial" size="16px" weight="400" font-style="" opacity="1" y="16" transform="rotate(0)"><tspan id="SvgjsTspan1076" dy="20" x="53.5"><tspan id="SvgjsTspan1077" style="text-decoration:;">源码</tspan></tspan></text></g></g><g id="SvgjsG1078" transform="translate(478,35)"><path id="SvgjsPath1079" d="M 0 0L 169.5 0L 169.5 54L 0 54Z" stroke="rgba(50,50,50,1)" stroke-width="2" fill-opacity="1" fill="#66ff66"></path><g id="SvgjsG1080"><text id="SvgjsText1081" font-family="Arial" text-anchor="middle" font-size="16px" width="150px" fill="#323232" font-weight="400" align="middle" lineHeight="125%" anchor="middle" family="Arial" size="16px" weight="400" font-style="" opacity="1" y="13" transform="rotate(0)"><tspan id="SvgjsTspan1082" dy="20" x="85"><tspan id="SvgjsTspan1083" style="text-decoration:;">遍历 AST：增删改查</tspan></tspan></text></g></g><g id="SvgjsG1084" transform="translate(220,32)"><path id="SvgjsPath1085" d="M 0 0L 138.5 0L 138.5 60L 0 60Z" stroke="rgba(50,50,50,1)" stroke-width="2" fill-opacity="1" fill="#66ff66"></path><g id="SvgjsG1086"><text id="SvgjsText1087" font-family="Arial" text-anchor="middle" font-size="16px" width="119px" fill="#323232" font-weight="400" align="middle" lineHeight="125%" anchor="middle" family="Arial" size="16px" weight="400" font-style="" opacity="1" y="16" transform="rotate(0)"><tspan id="SvgjsTspan1088" dy="20" x="69.5"><tspan id="SvgjsTspan1089" style="text-decoration:;">AST 抽象语法树</tspan></tspan></text></g></g><g id="SvgjsG1090"><path id="SvgjsPath1091" d="M133 62L176 62L176 62L216.39999999999998 62" stroke="#323232" stroke-width="2" fill="none" marker-end="url(#SvgjsMarker1092)"></path></g><g id="SvgjsG1094"><path id="SvgjsPath1095" d="M359.5 62L418.25 62L418.25 62L474.4 62" stroke="#323232" stroke-width="2" fill="none" marker-end="url(#SvgjsMarker1096)"></path></g><g id="SvgjsG1098" transform="translate(142.5,25)"><path id="SvgjsPath1099" d="M 0 0L 58 0L 58 32L 0 32Z" stroke="none" fill="none"></path><g id="SvgjsG1100"><text id="SvgjsText1101" font-family="微软雅黑" text-anchor="middle" font-size="18px" width="58px" fill="#e65100" font-weight="700" align="middle" lineHeight="125%" anchor="middle" family="微软雅黑" size="18px" weight="700" font-style="" opacity="1" y="0.25" transform="rotate(0)"><tspan id="SvgjsTspan1102" dy="22" x="29"><tspan id="SvgjsTspan1103" style="text-decoration:;">parse</tspan></tspan></text></g></g><g id="SvgjsG1104" transform="translate(358.5,35)"><path id="SvgjsPath1105" d="M 0 0L 118 0L 118 21L 0 21Z" stroke="none" fill="none"></path><g id="SvgjsG1106"><text id="SvgjsText1107" font-family="微软雅黑" text-anchor="middle" font-size="18px" width="118px" fill="#e65100" font-weight="700" align="middle" lineHeight="125%" anchor="middle" family="微软雅黑" size="18px" weight="700" font-style="" opacity="1" y="-5.25" transform="rotate(0)"><tspan id="SvgjsTspan1108" dy="22" x="59"><tspan id="SvgjsTspan1109" style="text-decoration:;">transform</tspan></tspan></text></g></g><g id="SvgjsG1110" transform="translate(768.5,35)"><path id="SvgjsPath1111" d="M 0 0L 192 0L 192 54L 0 54Z" stroke="rgba(50,50,50,1)" stroke-width="2" fill-opacity="1" fill="#66ff66"></path><g id="SvgjsG1112"><text id="SvgjsText1113" font-family="Arial" text-anchor="middle" font-size="16px" width="172px" fill="#323232" font-weight="400" align="middle" lineHeight="125%" anchor="middle" family="Arial" size="16px" weight="400" font-style="" opacity="1" y="13" transform="rotate(0)"><tspan id="SvgjsTspan1114" dy="20" x="96"><tspan id="SvgjsTspan1115" style="text-decoration:;">目标代码 + sourcemap</tspan></tspan></text></g></g><g id="SvgjsG1116"><path id="SvgjsPath1117" d="M649 62L708.75 62L708.75 62L764.9 62" stroke="#323232" stroke-width="2" fill="none" marker-end="url(#SvgjsMarker1118)"></path></g><g id="SvgjsG1120" transform="translate(649,35)"><path id="SvgjsPath1121" d="M 0 0L 118 0L 118 21L 0 21Z" stroke="none" fill="none"></path><g id="SvgjsG1122"><text id="SvgjsText1123" font-family="微软雅黑" text-anchor="middle" font-size="18px" width="118px" fill="#e65100" font-weight="700" align="middle" lineHeight="125%" anchor="middle" family="微软雅黑" size="18px" weight="700" font-style="" opacity="1" y="-5.25" transform="rotate(0)"><tspan id="SvgjsTspan1124" dy="22" x="59"><tspan id="SvgjsTspan1125" style="text-decoration:;">generate</tspan></tspan></text></g></g><g id="SvgjsG1126" transform="translate(649,65)"><path id="SvgjsPath1127" d="M 0 0L 118 0L 118 21L 0 21Z" stroke="none" fill="none"></path><g id="SvgjsG1128"><text id="SvgjsText1129" font-family="微软雅黑" text-anchor="middle" font-size="18px" width="118px" fill="#e65100" font-weight="700" align="middle" lineHeight="125%" anchor="middle" family="微软雅黑" size="18px" weight="700" font-style="" opacity="1" y="-5.25" transform="rotate(0)"><tspan id="SvgjsTspan1130" dy="22" x="59"><tspan id="SvgjsTspan1131" style="text-decoration:;">转换 ast</tspan></tspan></text></g></g></svg>